<mxfile host="app.diagrams.net" modified="2023-04-05T16:40:10.276Z" agent="Mozilla/5.0 (Windows NT 10.0; Win64; x64) AppleWebKit/537.36 (KHTML, like Gecko) Chrome/111.0.0.0 Safari/537.36" version="21.1.4" etag="LIJpejBvg5igAZ8PDOkC" type="github">
  <diagram name="Page-1" id="spqIxmlosEtsAJRrVRZL">
    <mxGraphModel>
      <root>
        <mxCell id="0" />
        <mxCell id="1" parent="0" />
      </root>
    </mxGraphModel>
  </diagram>
</mxfile>
